<svg xmlns="http://www.w3.org/2000/svg" viewBox="0 0 800 450" width="800" height="450">
  <defs>
    <linearGradient id="track-gradient" x1="0%" y1="0%" x2="100%" y2="0%">
      <stop offset="0%" style="stop-color:#374151;stop-opacity:1" />
      <stop offset="100%" style="stop-color:#1f2937;stop-opacity:1" />
    </linearGradient>
    <linearGradient id="car-gradient" x1="0%" y1="0%" x2="100%" y2="0%">
      <stop offset="0%" style="stop-color:#0ea5e9;stop-opacity:1" />
      <stop offset="100%" style="stop-color:#0284c7;stop-opacity:1" />
    </linearGradient>
    <pattern id="checker-pattern" width="40" height="40" patternUnits="userSpaceOnUse">
      <rect x="0" y="0" width="20" height="20" fill="white" />
      <rect x="20" y="20" width="20" height="20" fill="white" />
    </pattern>
  </defs>
  
  <!-- Sky background -->
  <rect width="800" height="200" fill="#0c4a6e" />
  
  <!-- Mountains -->
  <polygon points="0,200 200,100 400,180 600,80 800,200" fill="#075985" />
  
  <!-- Track -->
  <path d="M0,300 C200,200 400,400 800,300" stroke="url(#track-gradient)" stroke-width="100" fill="none" />
  
  <!-- Track markings -->
  <path d="M0,300 C200,200 400,400 800,300" stroke="#d1d5db" stroke-width="5" stroke-dasharray="30 20" fill="none" />
  
  <!-- Race car -->
  <g transform="translate(300, 300) rotate(-10)">
    <!-- Car body -->
    <path d="M-100,0 L-70,0 L-50,-20 L50,-20 L70,0 L100,0 L100,20 L-100,20 Z" fill="url(#car-gradient)" />
    
    <!-- Windows -->
    <path d="M-40,-20 L-30,-35 L30,-35 L40,-20 Z" fill="#f0f9ff" />
    
    <!-- Racing stripes -->
    <path d="M-20,-35 L-15,20" stroke="#f59e0b" stroke-width="7" />
    <path d="M20,-35 L15,20" stroke="#f59e0b" stroke-width="7" />
    
    <!-- Wheels -->
    <circle cx="-70" cy="20" r="15" fill="#1f2937" stroke="#d1d5db" stroke-width="3" />
    <circle cx="-70" cy="20" r="7" fill="#d1d5db" />
    
    <circle cx="70" cy="20" r="15" fill="#1f2937" stroke="#d1d5db" stroke-width="3" />
    <circle cx="70" cy="20" r="7" fill="#d1d5db" />
    
    <!-- Headlights -->
    <rect x="-95" y="-10" width="15" height="5" rx="2" fill="#fcd34d" />
    
    <!-- Spoiler -->
    <path d="M70,-20 L100,-40 L100,-20 Z" fill="#0c4a6e" />
    
    <!-- Motion blur lines -->
    <path d="M-120,10 L-100,10" stroke="#f0f9ff" stroke-width="2" />
    <path d="M-130,0 L-100,0" stroke="#f0f9ff" stroke-width="2" />
    <path d="M-125,20 L-100,20" stroke="#f0f9ff" stroke-width="2" />
  </g>
  
  <!-- Start/Finish line -->
  <g transform="translate(600, 300)">
    <rect x="-25" y="-50" width="50" height="100" fill="url(#checker-pattern)" />
  </g>
  
  <!-- Pit area -->
  <rect x="650" y="350" width="150" height="50" fill="#6b7280" />
  <rect x="670" y="360" width="30" height="30" fill="#0c4a6e" />
  <rect x="710" y="360" width="30" height="30" fill="#0c4a6e" />
  <rect x="750" y="360" width="30" height="30" fill="#0c4a6e" />
  
  <!-- Grass areas -->
  <path d="M0,450 L800,450 L800,350 C600,400 200,350 0,400 Z" fill="#4ade80" />
  <path d="M0,250 L0,200 C200,150 400,280 800,200 L800,250 C600,200 200,300 0,250 Z" fill="#4ade80" />
  
  <!-- Crowd -->
  <g transform="translate(100, 200)">
    <rect x="0" y="0" width="200" height="30" fill="#6b7280" />
    <rect x="0" y="0" width="200" height="5" fill="#e5e7eb" />
    <g>
      <circle cx="20" cy="-5" r="5" fill="#d1d5db" />
      <circle cx="40" cy="-5" r="5" fill="#d1d5db" />
      <circle cx="60" cy="-5" r="5" fill="#d1d5db" />
      <circle cx="80" cy="-5" r="5" fill="#d1d5db" />
      <circle cx="100" cy="-5" r="5" fill="#d1d5db" />
      <circle cx="120" cy="-5" r="5" fill="#d1d5db" />
      <circle cx="140" cy="-5" r="5" fill="#d1d5db" />
      <circle cx="160" cy="-5" r="5" fill="#d1d5db" />
      <circle cx="180" cy="-5" r="5" fill="#d1d5db" />
    </g>
  </g>
</svg> 