<svg width="1920" height="1080" xmlns="http://www.w3.org/2000/svg">
  <!-- Background with gradient -->
  <defs>
    <linearGradient id="bg-gradient" x1="0%" y1="0%" x2="100%" y2="100%">
      <stop offset="0%" stop-color="#000000" />
      <stop offset="100%" stop-color="#111111" />
    </linearGradient>
    
    <!-- Racing pattern for overlay -->
    <pattern id="racing-pattern" width="60" height="60" patternUnits="userSpaceOnUse">
      <rect width="30" height="30" fill="#dc2626" opacity="0.05"/>
      <rect x="30" y="30" width="30" height="30" fill="#dc2626" opacity="0.05"/>
    </pattern>
  </defs>
  
  <!-- Main background -->
  <rect width="100%" height="100%" fill="url(#bg-gradient)" />
  
  <!-- Racing pattern overlay -->
  <rect width="100%" height="100%" fill="url(#racing-pattern)" />
  
  <!-- Racing lines -->
  <g opacity="0.1">
    <!-- Curved racing lines -->
    <path d="M-100,400 C400,100 800,300 1200,200 C1600,100 2000,400 2400,300" 
          stroke="#ffffff" stroke-width="20" fill="none" />
    <path d="M-100,600 C300,300 800,500 1300,400 C1800,300 2200,600 2600,500" 
          stroke="#ffffff" stroke-width="30" fill="none" />
    <path d="M-100,800 C200,500 600,700 1100,600 C1600,500 2000,800 2400,700" 
          stroke="#ffffff" stroke-width="40" fill="none" />
    
    <!-- Red racing line -->
    <path d="M-100,700 C250,400 700,600 1200,500 C1700,400 2100,700 2500,600" 
          stroke="#dc2626" stroke-width="35" fill="none" />
  </g>
  
  <!-- Speed lines - white -->
  <g opacity="0.05">
    <line x1="100" y1="100" x2="300" y2="300" stroke="#ffffff" stroke-width="15" />
    <line x1="400" y1="200" x2="600" y2="400" stroke="#ffffff" stroke-width="12" />
    <line x1="700" y1="150" x2="900" y2="350" stroke="#ffffff" stroke-width="18" />
    <line x1="1000" y1="250" x2="1200" y2="450" stroke="#ffffff" stroke-width="10" />
    <line x1="1300" y1="180" x2="1500" y2="380" stroke="#ffffff" stroke-width="14" />
    <line x1="1600" y1="220" x2="1800" y2="420" stroke="#ffffff" stroke-width="16" />
  </g>
  
  <!-- Speed lines - red -->
  <g opacity="0.08">
    <line x1="250" y1="500" x2="450" y2="700" stroke="#dc2626" stroke-width="15" />
    <line x1="550" y1="600" x2="750" y2="800" stroke="#dc2626" stroke-width="12" />
    <line x1="850" y1="550" x2="1050" y2="750" stroke="#dc2626" stroke-width="18" />
    <line x1="1150" y1="650" x2="1350" y2="850" stroke="#dc2626" stroke-width="10" />
    <line x1="1450" y1="580" x2="1650" y2="780" stroke="#dc2626" stroke-width="14" />
    <line x1="1750" y1="620" x2="1950" y2="820" stroke="#dc2626" stroke-width="16" />
  </g>
  
  <!-- Dark vignette effect -->
  <radialGradient id="vignette" cx="50%" cy="50%" r="65%" fx="50%" fy="50%">
    <stop offset="0%" stop-color="#000000" stop-opacity="0" />
    <stop offset="80%" stop-color="#000000" stop-opacity="0.3" />
    <stop offset="100%" stop-color="#000000" stop-opacity="0.7" />
  </radialGradient>
  <rect width="100%" height="100%" fill="url(#vignette)" />
</svg> 