<svg width="1920" height="600" xmlns="http://www.w3.org/2000/svg">
  <!-- Background with gradient -->
  <defs>
    <linearGradient id="bg-gradient" x1="0%" y1="0%" x2="100%" y2="100%">
      <stop offset="0%" stop-color="#0a0a0a" />
      <stop offset="100%" stop-color="#1a1a1a" />
    </linearGradient>
    
    <!-- Pattern overlay -->
    <pattern id="team-pattern" width="60" height="60" patternUnits="userSpaceOnUse">
      <rect width="60" height="60" fill="none" stroke="#dc2626" stroke-width="0.5" opacity="0.1"/>
      <circle cx="30" cy="30" r="2" fill="#dc2626" opacity="0.2"/>
    </pattern>
  </defs>
  
  <!-- Main background -->
  <rect width="100%" height="100%" fill="url(#bg-gradient)" />
  
  <!-- Pattern overlay -->
  <rect width="100%" height="100%" fill="url(#team-pattern)" />
  
  <!-- Abstract team representation -->
  <g opacity="0.15" transform="translate(960, 300)">
    <!-- Central figure -->
    <circle cx="0" cy="0" r="60" fill="#ffffff"/>
    <circle cx="0" cy="0" r="70" fill="none" stroke="#ffffff" stroke-width="2"/>
    
    <!-- Team members around -->
    <circle cx="-250" cy="-100" r="40" fill="#ffffff"/>
    <circle cx="-200" cy="150" r="35" fill="#ffffff"/>
    <circle cx="200" cy="150" r="35" fill="#ffffff"/>
    <circle cx="250" cy="-100" r="40" fill="#ffffff"/>
    <circle cx="-400" cy="0" r="30" fill="#ffffff"/>
    <circle cx="400" cy="0" r="30" fill="#ffffff"/>
    
    <!-- Connecting lines -->
    <line x1="0" y1="0" x2="-250" y2="-100" stroke="#ffffff" stroke-width="2"/>
    <line x1="0" y1="0" x2="-200" y2="150" stroke="#ffffff" stroke-width="2"/>
    <line x1="0" y1="0" x2="200" y2="150" stroke="#ffffff" stroke-width="2"/>
    <line x1="0" y1="0" x2="250" y2="-100" stroke="#ffffff" stroke-width="2"/>
    <line x1="0" y1="0" x2="-400" y2="0" stroke="#ffffff" stroke-width="2"/>
    <line x1="0" y1="0" x2="400" y2="0" stroke="#ffffff" stroke-width="2"/>
  </g>
  
  <!-- Red accent elements -->
  <g opacity="0.2">
    <circle cx="960" cy="300" r="80" fill="none" stroke="#dc2626" stroke-width="4"/>
    
    <!-- Abstract racing elements -->
    <path d="M200,400 C300,350 400,450 500,400 C600,350 700,450 800,400" 
          fill="none" stroke="#dc2626" stroke-width="6"/>
    <path d="M1100,400 C1200,350 1300,450 1400,400 C1500,350 1600,450 1700,400" 
          fill="none" stroke="#dc2626" stroke-width="6"/>
  </g>
  
  <!-- Dark vignette effect -->
  <radialGradient id="vignette" cx="50%" cy="50%" r="70%" fx="50%" fy="50%">
    <stop offset="0%" stop-color="#000000" stop-opacity="0" />
    <stop offset="85%" stop-color="#000000" stop-opacity="0.4" />
    <stop offset="100%" stop-color="#000000" stop-opacity="0.7" />
  </radialGradient>
  <rect width="100%" height="100%" fill="url(#vignette)" />
  
  <!-- Bottom shadow gradient for text readability -->
  <linearGradient id="bottom-shadow" x1="0%" y1="0%" x2="0%" y2="100%">
    <stop offset="0%" stop-color="#000000" stop-opacity="0" />
    <stop offset="100%" stop-color="#000000" stop-opacity="0.5" />
  </linearGradient>
  <rect width="100%" height="150" y="450" fill="url(#bottom-shadow)" />
</svg> 